<svg width="100" height="100" viewBox="0 0 100 100" fill="none" xmlns="http://www.w3.org/2000/svg">
<rect width="100" height="100" rx="50" fill="white"/>
<mask id="mask0_624_7427" style="mask-type:luminance" maskUnits="userSpaceOnUse" x="8" y="50" width="88" height="28">
<path d="M8.77295 50.8889H95.6693V78H8.77295V50.8889Z" fill="white"/>
</mask>
<g mask="url(#mask0_624_7427)">
<mask id="mask1_624_7427" style="mask-type:luminance" maskUnits="userSpaceOnUse" x="8" y="32" width="89" height="63">
<path d="M18.5526 32.7468L96.989 50.7572L86.8924 94.9464L8.45605 76.936L18.5526 32.7468Z" fill="white"/>
</mask>
<g mask="url(#mask1_624_7427)">
<mask id="mask2_624_7427" style="mask-type:luminance" maskUnits="userSpaceOnUse" x="8" y="32" width="89" height="63">
<path d="M18.5526 32.7468L96.989 50.7572L86.8924 94.9464L8.45605 76.936L18.5526 32.7468Z" fill="white"/>
</mask>
<g mask="url(#mask2_624_7427)">
<path d="M10.8892 77.5939L27.274 68.3873L30.0796 72.8474C30.3463 73.2728 30.7672 73.5696 31.2573 73.679C31.7456 73.7884 32.2531 73.6998 32.6756 73.429L46.5632 64.5436L50.2693 70.1408C50.8287 70.9863 51.9544 71.2328 52.8168 70.6998L68.3739 61.0679L72.7104 66.7641C73.3044 67.5436 74.4024 67.7346 75.2233 67.1998L95.3489 54.0922L93.3053 50.9395L74.6379 63.0974L70.3257 57.4325C69.742 56.6669 68.6683 56.4672 67.8491 56.9742L52.3908 66.5453L48.6691 60.9256C48.1028 60.0696 46.9615 59.8283 46.0991 60.3804L32.2461 69.2432L29.496 64.8717C28.966 64.028 27.8629 63.7467 26.9935 64.2346L9.05518 74.3144L10.8892 77.5939Z" fill="#3D5A80"/>
</g>
</g>
</g>
<mask id="mask3_624_7427" style="mask-type:luminance" maskUnits="userSpaceOnUse" x="85" y="48" width="12" height="14">
<path d="M85.0298 48.2219H97.0002V61.1108H85.0298V48.2219Z" fill="white"/>
</mask>
<g mask="url(#mask3_624_7427)">
<mask id="mask4_624_7427" style="mask-type:luminance" maskUnits="userSpaceOnUse" x="8" y="32" width="89" height="63">
<path d="M18.5531 32.7463L96.9895 50.7567L86.8929 94.9459L8.45654 76.9355L18.5531 32.7463Z" fill="white"/>
</mask>
<g mask="url(#mask4_624_7427)">
<mask id="mask5_624_7427" style="mask-type:luminance" maskUnits="userSpaceOnUse" x="8" y="32" width="89" height="63">
<path d="M18.5531 32.7463L96.9895 50.7567L86.8929 94.9459L8.45654 76.9355L18.5531 32.7463Z" fill="white"/>
</mask>
<g mask="url(#mask5_624_7427)">
<path d="M85.374 51.9513L92.5958 53.6093L91.1514 59.9322L94.8073 60.7707L96.6708 52.6162C96.7799 52.1336 96.6933 51.618 96.4318 51.1978C96.1685 50.7794 95.7425 50.4756 95.2611 50.3645L86.2122 48.2864L85.374 51.9513Z" fill="#3D5A80"/>
</g>
</g>
</g>
<mask id="mask6_624_7427" style="mask-type:luminance" maskUnits="userSpaceOnUse" x="7" y="10" width="86" height="59">
<path d="M7 10H92.123V68.2221H7V10Z" fill="white"/>
</mask>
<g mask="url(#mask6_624_7427)">
<mask id="mask7_624_7427" style="mask-type:luminance" maskUnits="userSpaceOnUse" x="-4" y="-1" width="97" height="70">
<path d="M-3.73389 24.7205L78.8814 -0.815918L92.4018 43.1423L9.78652 68.677L-3.73389 24.7205Z" fill="white"/>
</mask>
<g mask="url(#mask7_624_7427)">
<mask id="mask8_624_7427" style="mask-type:luminance" maskUnits="userSpaceOnUse" x="-4" y="-1" width="97" height="70">
<path d="M-3.73389 24.7205L78.8814 -0.815918L92.4018 43.1423L9.78652 68.677L-3.73389 24.7205Z" fill="white"/>
</mask>
<g mask="url(#mask8_624_7427)">
<path d="M90.007 43.7969C89.8477 43.8472 89.6831 43.8802 89.5169 43.8976C89.3489 43.9149 89.1826 43.9149 89.0147 43.8993C88.8484 43.8837 88.6839 43.8524 88.5228 43.8038C88.3618 43.7552 88.2076 43.6927 88.0587 43.6146C87.9097 43.5347 87.7712 43.4427 87.6396 43.3368C87.5097 43.2309 87.3902 43.1128 87.2846 42.9826C87.1772 42.8542 87.0837 42.7153 87.0023 42.5677C86.9226 42.4184 86.8585 42.2639 86.8083 42.1042C80.6135 21.9601 59.2306 10.6285 39.1431 16.8386C19.0556 23.0469 7.74499 44.4826 13.9397 64.6267C13.9934 64.7882 14.0315 64.9548 14.0506 65.1232C14.0714 65.2934 14.0748 65.4635 14.0627 65.6337C14.0489 65.8038 14.0194 65.9705 13.9727 66.1354C13.9259 66.2986 13.8635 66.4566 13.7856 66.6093C13.7077 66.7604 13.6159 66.9027 13.5085 67.0364C13.4029 67.1701 13.2834 67.2916 13.1535 67.401C13.0219 67.5104 12.8816 67.6059 12.7327 67.6875C12.5837 67.7691 12.4261 67.835 12.2633 67.8854C12.1005 67.9357 11.936 67.9687 11.7663 67.9861C11.5966 68.0034 11.4269 68.0034 11.2571 67.9878C11.0874 67.9704 10.9212 67.9375 10.7584 67.8871C10.5956 67.8368 10.4397 67.7708 10.2908 67.6892C10.1401 67.6076 9.99983 67.5121 9.86994 67.4027C9.73832 67.2934 9.62056 67.1718 9.51319 67.0399C9.40581 66.9062 9.31403 66.7639 9.23609 66.6128C9.15816 66.46 9.09581 66.3021 9.04732 66.1389C2.02128 43.2951 14.8472 18.9775 37.6347 11.9341C60.4221 4.89067 84.6799 17.7466 91.7059 40.5903C91.7544 40.7517 91.7891 40.9167 91.8046 41.0833C91.822 41.2517 91.8237 41.4184 91.8064 41.5868C91.7908 41.7552 91.7596 41.9201 91.7111 42.0816C91.6626 42.2431 91.5985 42.3976 91.5189 42.5469C91.441 42.6962 91.3474 42.8351 91.2418 42.9653C91.1362 43.0972 91.0167 43.2153 90.8885 43.3229C90.7586 43.4306 90.6183 43.5243 90.4711 43.6042C90.3222 43.684 90.1681 43.7483 90.007 43.7969Z" fill="#EC8B57"/>
</g>
</g>
</g>
<mask id="mask9_624_7427" style="mask-type:luminance" maskUnits="userSpaceOnUse" x="31" y="40" width="6" height="24">
<path d="M31.0186 40.3767H36.9293V63.3854H31.0186V40.3767Z" fill="white"/>
</mask>
<g mask="url(#mask9_624_7427)">
<mask id="mask10_624_7427" style="mask-type:luminance" maskUnits="userSpaceOnUse" x="31" y="40" width="6" height="24">
<path d="M32.3486 40.3767H35.5992C36.3353 40.3767 36.9293 40.9722 36.9293 41.71V62.052C36.9293 62.7881 36.3353 63.3854 35.5992 63.3854H32.3486C31.6143 63.3854 31.0186 62.7881 31.0186 62.052V41.71C31.0186 40.9722 31.6143 40.3767 32.3486 40.3767Z" fill="white"/>
</mask>
<g mask="url(#mask10_624_7427)">
<path d="M31.0186 40.3767H36.9293V63.3854H31.0186V40.3767Z" fill="#3D5A80"/>
</g>
</g>
<mask id="mask11_624_7427" style="mask-type:luminance" maskUnits="userSpaceOnUse" x="17" y="47" width="7" height="17">
<path d="M17.8936 47.5696H23.806V63.9116H17.8936V47.5696Z" fill="white"/>
</mask>
<g mask="url(#mask11_624_7427)">
<mask id="mask12_624_7427" style="mask-type:luminance" maskUnits="userSpaceOnUse" x="17" y="47" width="7" height="17">
<path d="M19.2236 47.5696H22.476C23.2103 47.5696 23.806 48.1668 23.806 48.9029V62.5748C23.806 63.3109 23.2103 63.9081 22.476 63.9081H19.2236C18.4893 63.9081 17.8936 63.3109 17.8936 62.5748V48.9029C17.8936 48.1668 18.4893 47.5696 19.2236 47.5696Z" fill="white"/>
</mask>
<g mask="url(#mask12_624_7427)">
<path d="M17.8936 47.5696H23.806V63.9116H17.8936V47.5696Z" fill="#3D5A80"/>
</g>
</g>
<mask id="mask13_624_7427" style="mask-type:luminance" maskUnits="userSpaceOnUse" x="44" y="33" width="6" height="25">
<path d="M44.0713 33.0381H49.982V57.4825H44.0713V33.0381Z" fill="white"/>
</mask>
<g mask="url(#mask13_624_7427)">
<mask id="mask14_624_7427" style="mask-type:luminance" maskUnits="userSpaceOnUse" x="44" y="33" width="6" height="25">
<path d="M45.4013 33.0381H48.652C49.3863 33.0381 49.982 33.6353 49.982 34.3714V56.137C49.982 56.8731 49.3863 57.4703 48.652 57.4703H45.4013C44.6653 57.4703 44.0713 56.8731 44.0713 56.137V34.3714C44.0713 33.6353 44.6653 33.0381 45.4013 33.0381Z" fill="white"/>
</mask>
<g mask="url(#mask14_624_7427)">
<path d="M44.0713 33.0381H49.982V57.4582H44.0713V33.0381Z" fill="#3D5A80"/>
</g>
</g>
<mask id="mask15_624_7427" style="mask-type:luminance" maskUnits="userSpaceOnUse" x="56" y="27" width="7" height="33">
<path d="M56.1333 27.8281H62.0458V59.4947H56.1333V27.8281Z" fill="white"/>
</mask>
<g mask="url(#mask15_624_7427)">
<mask id="mask16_624_7427" style="mask-type:luminance" maskUnits="userSpaceOnUse" x="56" y="27" width="7" height="33">
<path d="M57.4633 27.8281H60.7157C61.45 27.8281 62.0458 28.4253 62.0458 29.1615V58.1475C62.0458 58.8836 61.45 59.4809 60.7157 59.4809H57.4633C56.7291 59.4809 56.1333 58.8836 56.1333 58.1475V29.1615C56.1333 28.4253 56.7291 27.8281 57.4633 27.8281Z" fill="white"/>
</mask>
<g mask="url(#mask16_624_7427)">
<path d="M56.1333 27.8281H62.0458V59.4722H56.1333V27.8281Z" fill="#3D5A80"/>
</g>
</g>
<mask id="mask17_624_7427" style="mask-type:luminance" maskUnits="userSpaceOnUse" x="68" y="26" width="7" height="29">
<path d="M68.6963 26.4775H74.6088V54.2778H68.6963V26.4775Z" fill="white"/>
</mask>
<g mask="url(#mask17_624_7427)">
<mask id="mask18_624_7427" style="mask-type:luminance" maskUnits="userSpaceOnUse" x="68" y="26" width="7" height="29">
<path d="M70.0263 26.4775H73.2787C74.013 26.4775 74.6088 27.0748 74.6088 27.8109V52.941C74.6088 53.6772 74.013 54.2744 73.2787 54.2744H70.0263C69.292 54.2744 68.6963 53.6772 68.6963 52.941V27.8109C68.6963 27.0748 69.292 26.4775 70.0263 26.4775Z" fill="white"/>
</mask>
<g mask="url(#mask18_624_7427)">
<path d="M68.6963 26.4775H74.6088V54.2778H68.6963V26.4775Z" fill="#3D5A80"/>
</g>
</g>
</svg>
